<?xml version="1.0" encoding="UTF-8" standalone="no"?>
<svg
   xmlns:dc="http://purl.org/dc/elements/1.1/"
   xmlns:cc="http://creativecommons.org/ns#"
   xmlns:rdf="http://www.w3.org/1999/02/22-rdf-syntax-ns#"
   xmlns:svg="http://www.w3.org/2000/svg"
   xmlns="http://www.w3.org/2000/svg"
   xml:space="preserve"
   style="enable-background:new 0 0 500 500;"
   viewBox="0 0 500 500"
   y="0px"
   x="0px"
   id="Слой_1"
   version="1.1"><metadata
   id="metadata31"><rdf:RDF><cc:Work
       rdf:about=""><dc:format>image/svg+xml</dc:format><dc:type
         rdf:resource="http://purl.org/dc/dcmitype/StillImage" /><dc:title></dc:title></cc:Work></rdf:RDF></metadata><defs
   id="defs29" />
<style
   id="style2"
   type="text/css">
	.st0{fill:url(#SVGID_1_);}
	.st1{fill:url(#SVGID_2_);}
</style>
<linearGradient
   gradientTransform="matrix(1.2091195,0,0,1.2091195,-48.794075,-48.658924)"
   y2="356.9557"
   x2="417.232"
   y1="420.7711"
   x1="353.4165"
   gradientUnits="userSpaceOnUse"
   id="SVGID_1_">
	<stop
   id="stop4"
   style="stop-color:#00AC3A"
   offset="0" />
	<stop
   id="stop6"
   style="stop-color:#00B73B"
   offset="0.249" />
	<stop
   id="stop8"
   style="stop-color:#00D63E"
   offset="0.6915" />
	<stop
   id="stop10"
   style="stop-color:#00EF40"
   offset="1" />
</linearGradient>
<circle
   style="fill:url(#SVGID_1_);stroke-width:1.20911944"
   id="circle13"
   r="54.555473"
   cy="421.51929"
   cx="417.10385"
   class="st0" />
<linearGradient
   gradientTransform="matrix(1.2091195,0,0,1.2091195,-48.794075,-48.658924)"
   y2="55.0695"
   x2="350.8265"
   y1="351.4626"
   x1="54.4333"
   gradientUnits="userSpaceOnUse"
   id="SVGID_2_">
	<stop
   id="stop15"
   style="stop-color:#00AC3A"
   offset="0" />
	<stop
   id="stop17"
   style="stop-color:#00B73B"
   offset="0.249" />
	<stop
   id="stop19"
   style="stop-color:#00D63E"
   offset="0.6915" />
	<stop
   id="stop21"
   style="stop-color:#00EF40"
   offset="1" />
</linearGradient>
<path
   style="fill:url(#SVGID_2_);stroke-width:1.20911944"
   id="path24"
   d="M 474.34356,174.93145 C 463.11084,41.73485 343.28711,27.297962 325.10195,26.221846 H 29.834966 V 327.37723 c -0.108821,6.02143 10.168695,150.31773 157.258074,150.30565 137.76708,-0.012 156.72608,-140.10067 155.66206,-140.14904 51.08529,0.60456 139.2301,-72.03934 131.58846,-162.60239 z m -152.9778,81.3012 h -64.19214 v 63.11604 c 0,0 -7.48445,67.92832 -74.89287,67.92832 -67.40841,0 -71.4106,-67.92832 -71.4106,-67.92832 V 108.59915 H 322.9618 c 0,0 66.3323,5.88842 66.3323,72.20863 0,66.33228 -67.92834,75.42487 -67.92834,75.42487 z"
   class="st1" />
</svg>